<svg width="30" height="30" viewBox="0 0 30 30" fill="none" xmlns="http://www.w3.org/2000/svg">
<path fill-rule="evenodd" clip-rule="evenodd" d="M29.9998 15.4216C29.9998 13.0491 29.3861 10.8216 28.3111 8.88538C32.8936 -1.48712 23.3998 0.0316301 22.8711 0.13538C20.8598 0.52913 18.9998 1.16038 17.2836 1.96163C17.0288 1.94745 16.7737 1.94036 16.5186 1.94038C10.1123 1.94038 4.74982 6.40788 3.37732 12.3979C6.75482 8.61038 9.11732 7.08163 10.5323 6.47038C10.3073 6.67205 10.0857 6.8758 9.86732 7.08163L9.65482 7.28788C9.51065 7.42455 9.36815 7.56288 9.22732 7.70288L8.98232 7.95288C8.85732 8.07871 8.7344 8.20538 8.61357 8.33288L8.35857 8.60288C7.8619 9.1331 7.38249 9.67922 6.92107 10.2404C6.74803 10.449 6.57719 10.6594 6.40857 10.8716L6.15857 11.1879L5.92982 11.4879L5.67232 11.8279L5.49732 12.0691C4.98928 12.7625 4.50239 13.4712 4.03732 14.1941L4.03482 14.1979C3.91899 14.3787 3.80649 14.557 3.69732 14.7329L3.67982 14.7616C3.56982 14.9375 3.46357 15.1116 3.36107 15.2841L3.34982 15.3016C3.07232 15.7658 2.8169 16.2087 2.58357 16.6304C1.36982 18.8304 0.778571 20.3679 0.753571 20.4591C-3.08143 34.1666 8.88482 28.3779 10.5548 27.5141C12.4089 28.4297 14.4495 28.9045 16.5173 28.9016C22.3798 28.9016 27.3673 25.1604 29.2236 19.9354H22.1411C21.0923 21.7054 19.0748 22.9054 16.7561 22.9054C13.3598 22.9054 10.6061 20.3316 10.6061 17.1579H29.8886C29.9627 16.5887 29.9998 16.0108 29.9998 15.4216ZM27.4811 2.15538C28.6423 2.93913 29.5736 4.16788 27.9736 8.31288C26.4282 5.82674 24.118 3.90907 21.3898 2.84788C22.6373 2.24538 25.7273 0.97163 27.4811 2.15538ZM2.80982 27.4866C1.86357 26.5166 1.69732 24.1554 3.78357 19.8516C4.83416 22.8597 6.91299 25.4002 9.65357 27.0254C8.30357 27.7691 4.71607 29.4429 2.80982 27.4866ZM10.5748 13.4704C10.6823 10.3854 13.3686 7.91538 16.6673 7.91538C19.9673 7.91538 22.6511 10.3854 22.7598 13.4704H10.5748Z" fill="#007EA7"/>
</svg>
